<svg xmlns="http://www.w3.org/2000/svg" viewBox="0 0 1024 1024" width="1024" height="1024">
  <defs><linearGradient id="aur" x1="0" y1="0" x2="1" y2="1">
  <stop offset="0%" stop-color="#2e3dff"/>
  <stop offset="52%" stop-color="#8b5cf6"/>
  <stop offset="100%" stop-color="#10b5a4"/>
</linearGradient></defs>
  <g transform="translate(512 512) scale(0.88) translate(-512 -512)">
    <line x1="608.00" y1="512.00" x2="872.00" y2="512.00" stroke="url(#aur)" stroke-width="22" stroke-linecap="round"/><line x1="600.69" y1="548.74" x2="742.97" y2="607.67" stroke="url(#aur)" stroke-width="12" stroke-linecap="round"/><line x1="579.88" y1="579.88" x2="766.56" y2="766.56" stroke="url(#aur)" stroke-width="22" stroke-linecap="round"/><line x1="548.74" y1="600.69" x2="607.67" y2="742.97" stroke="url(#aur)" stroke-width="12" stroke-linecap="round"/><line x1="512.00" y1="608.00" x2="512.00" y2="872.00" stroke="url(#aur)" stroke-width="22" stroke-linecap="round"/><line x1="475.26" y1="600.69" x2="416.33" y2="742.97" stroke="url(#aur)" stroke-width="12" stroke-linecap="round"/><line x1="444.12" y1="579.88" x2="257.44" y2="766.56" stroke="url(#aur)" stroke-width="22" stroke-linecap="round"/><line x1="423.31" y1="548.74" x2="281.03" y2="607.67" stroke="url(#aur)" stroke-width="12" stroke-linecap="round"/><line x1="416.00" y1="512.00" x2="152.00" y2="512.00" stroke="url(#aur)" stroke-width="22" stroke-linecap="round"/><line x1="423.31" y1="475.26" x2="281.03" y2="416.33" stroke="url(#aur)" stroke-width="12" stroke-linecap="round"/><line x1="444.12" y1="444.12" x2="257.44" y2="257.44" stroke="url(#aur)" stroke-width="22" stroke-linecap="round"/><line x1="475.26" y1="423.31" x2="416.33" y2="281.03" stroke="url(#aur)" stroke-width="12" stroke-linecap="round"/><line x1="512.00" y1="416.00" x2="512.00" y2="152.00" stroke="url(#aur)" stroke-width="22" stroke-linecap="round"/><line x1="548.74" y1="423.31" x2="607.67" y2="281.03" stroke="url(#aur)" stroke-width="12" stroke-linecap="round"/><line x1="579.88" y1="444.12" x2="766.56" y2="257.44" stroke="url(#aur)" stroke-width="22" stroke-linecap="round"/><line x1="600.69" y1="475.26" x2="742.97" y2="416.33" stroke="url(#aur)" stroke-width="12" stroke-linecap="round"/>
    <circle cx="512" cy="512" r="96" fill="#0b0e13" stroke="url(#aur)" stroke-width="22"/>
    <circle cx="512" cy="512" r="34" fill="#4fd8c8"/>
  </g>
</svg>