<svg xmlns="http://www.w3.org/2000/svg" fill="none" viewBox="0 0 24 24" height="24" width="24">
  <path fill="#000000" d="M19.7832 17.4219c-1.6139 2.0304 -3.4283 3.6346 -4.8311 4.7285 -0.7031 0.5483 -1.3078 0.9726 -1.7392 1.2607 -0.2157 0.1441 -0.3883 0.2547 -0.5088 0.3301 -0.0602 0.0377 -0.1076 0.0669 -0.1406 0.0869 -0.0165 0.01 -0.0298 0.0179 -0.0391 0.0235 -0.0043 0.0025 -0.0081 0.0042 -0.0107 0.0058 -0.0014 0.0008 -0.003 0.0024 -0.0039 0.003h-0.001v0.0009L12 23l0.5078 0.8613c-0.3133 0.1847 -0.7023 0.1847 -1.0156 0L12 23l-0.5088 0.8613v-0.0009h-0.001c-0.0009 -0.0006 -0.0025 -0.0022 -0.0039 -0.003 -0.0026 -0.0016 -0.0064 -0.0033 -0.0107 -0.0058 -0.0093 -0.0056 -0.0226 -0.0135 -0.0391 -0.0235 -0.033 -0.02 -0.0804 -0.0492 -0.1406 -0.0869 -0.1205 -0.0754 -0.2931 -0.186 -0.5088 -0.3301 -0.4314 -0.2881 -1.03609 -0.7124 -1.73925 -1.2607 -1.40272 -1.0939 -3.2171 -2.6981 -4.83105 -4.7285l1.5664 -1.2442c1.48591 1.8693 3.17197 3.3655 4.4941 4.3965 0.6592 0.514 1.2235 0.9089 1.6202 1.1738 0.0352 0.0236 0.07 0.045 0.1025 0.0665 0.0325 -0.0215 0.0673 -0.0429 0.1025 -0.0665 0.3967 -0.2649 0.961 -0.6598 1.6202 -1.1738 1.3221 -1.031 3.0082 -2.5272 4.4941 -4.3965zM14.7881 7c0.4007 -0.00466 0.7653 0.23084 0.9267 0.59766L17.6523 12H24v2h-7c-0.3965 0 -0.7553 -0.2347 -0.915 -0.5977l-1.2559 -2.8525 -2.4043 5.8311c-0.1357 0.329 -0.4364 0.562 -0.7891 0.6103 -0.3525 0.0483 -0.7046 -0.0946 -0.9238 -0.375l-3.5576 -4.5508 -1.40332 1.5948C5.56113 13.8759 5.28738 14 5 14H0v-2h4.54785l1.90137 -2.16016 0.07812 -0.0791c0.19046 -0.17331 0.44191 -0.2683 0.70215 -0.26074 0.29724 0.00876 0.57563 0.14951 0.75879 0.38379l3.24222 4.14651 2.6455 -6.41116 0.0664 -0.13281c0.1765 -0.29491 0.4951 -0.48216 0.8457 -0.48633m2.8115 -7c1.8465 0 3.4546 0.922396 4.5772 2.20312C23.2963 3.48049 24 5.18559 24 6.90039c0 1.16156 -0.1058 2.26485 -0.4424 3.38671L22.5996 10l-0.957 -0.28711c0.2633 -0.87783 0.3574 -1.77444 0.3574 -2.8125 0 -1.1852 -0.4966 -2.43128 -1.3271 -3.37891C19.8454 2.57744 18.753 2 17.5996 2c-1.582 0.00015 -3.0475 0.94837 -3.7959 2.52832 -0.0029 0.00618 -0.0057 0.01244 -0.0088 0.01856 -0.1592 0.31852 -0.3893 0.61783 -0.7148 0.83496 -0.332 0.22131 -0.7051 0.31836 -1.0801 0.31836s-0.7481 -0.09705 -1.0801 -0.31836c-0.3255 -0.21713 -0.5556 -0.51644 -0.7148 -0.83496 -0.0031 -0.00612 -0.0059 -0.01238 -0.0088 -0.01856C9.44789 2.94837 7.98238 2.00015 6.40039 2c-1.15336 0 -2.24582 0.57744 -3.07324 1.52148C2.49664 4.46911 2 5.71519 2 6.90039c0.00005 0.98621 0.17868 1.89243 0.38086 2.90332l-1.960938 0.39259C0.22216 9.20748 0.0000482998 8.11382 0 6.90039c0.0000020874 -1.7148 0.703743 -3.4199 1.82324 -4.69727C2.94581 0.922396 4.55394 0 6.40039 0c2.41057 0.000146171 4.53901 1.44364 5.59371 3.65234 0.0016 0.00308 0.0044 0.00594 0.0059 0.00879 0.0015 -0.00285 0.0043 -0.00571 0.0059 -0.00879C13.0606 1.44364 15.189 0.000146171 17.5996 0" stroke-width="1"></path>
</svg>